<svg xmlns="http://www.w3.org/2000/svg" viewBox="0 0 343.97 69.5"><g id="Layer_2" data-name="Layer 2"><g id="Layer_1-2" data-name="Layer 1"><path d="M46,26.44q0,12.23-6.12,19.35T23,52.91q-10.73,0-16.84-7.12T0,26.37Q0,14.1,6.17,7.05T23,0Q33.78,0,39.87,7.08T46,26.44Zm-42.05,0q0,11,4.92,17.07t14.14,6q9.27,0,14.18-6t4.91-17.12q0-11.11-4.91-17T23,3.48q-9.18,0-14.15,6T3.9,26.44Z"/><path d="M73.23,52.91q-8.82,0-12.87-6.61h-.24l.1,3c.1,1.74.14,3.64.14,5.7V69.5H56.88V14h3l.66,5.45h.21q3.95-6.18,12.59-6.19,7.74,0,11.8,5.08t4.06,14.79q0,9.42-4.28,14.6T73.23,52.91Zm-.07-3.09a10.66,10.66,0,0,0,9.09-4.36q3.21-4.37,3.21-12.2,0-16.84-12.16-16.84-6.67,0-9.81,3.67t-3.13,12v1.13q0,9,3,12.79T73.16,49.82Z"/><path d="M115.17,52.91q-8.33,0-13-5.13T97.52,33.4q0-9.15,4.5-14.64a14.86,14.86,0,0,1,12.13-5.51A13.09,13.09,0,0,1,124.8,18q3.92,4.72,3.91,12.8v2.81H101.18q.07,7.88,3.67,12c2.41,2.76,5.84,4.15,10.32,4.15a32.42,32.42,0,0,0,5.75-.46,35.52,35.52,0,0,0,6.28-2v3.16a27.94,27.94,0,0,1-6,1.92A33.23,33.23,0,0,1,115.17,52.91Zm-1-36.56A11.44,11.44,0,0,0,105.29,20q-3.33,3.63-3.9,10.49H125q0-6.64-2.89-10.39A9.52,9.52,0,0,0,114.15,16.35Z"/><path d="M165.9,52.21V27.42c0-3.84-.81-6.64-2.42-8.38s-4.13-2.62-7.53-2.62q-6.85,0-10,3.46t-3.19,11.23v21.1h-3.48V14h3l.67,5.24h.21q3.72-6,13.25-6,13,0,13,14v25Z"/><path d="M229.68,39A12.36,12.36,0,0,1,225,49.15q-4.74,3.76-12.57,3.76-9.42,0-14.45-2.07V47.25q5.55,2.36,14.17,2.36,6.33,0,10-2.9a9.21,9.21,0,0,0,3.71-7.62,8.79,8.79,0,0,0-1.23-4.83,11.23,11.23,0,0,0-4-3.5,50.19,50.19,0,0,0-8.16-3.41q-7.87-2.7-10.88-5.85a11.61,11.61,0,0,1-3-8.39,11.52,11.52,0,0,1,4.52-9.4Q207.6.07,214.7.07a33.93,33.93,0,0,1,13.6,2.74L227,5.91a31.74,31.74,0,0,0-12.23-2.68q-5.7,0-9.07,2.64A8.62,8.62,0,0,0,202.32,13a9.43,9.43,0,0,0,1,4.68A9.57,9.57,0,0,0,206.75,21a46.12,46.12,0,0,0,8.09,3.49,44.11,44.11,0,0,1,9,4A13,13,0,0,1,228.29,33,12.14,12.14,0,0,1,229.68,39Z"/><path d="M262.86,52.21,262,46.16h-.28a18.11,18.11,0,0,1-5.92,5.22,15.84,15.84,0,0,1-7.19,1.53q-5.62,0-8.75-2.88a10.29,10.29,0,0,1-3.13-8,9.85,9.85,0,0,1,4.66-8.69q4.65-3.09,13.48-3.27l7.27-.21V27.35c0-3.63-.73-6.37-2.21-8.23s-3.86-2.77-7.14-2.77a23.84,23.84,0,0,0-11,2.95l-1.3-3a29.08,29.08,0,0,1,12.44-3q6.3,0,9.41,3.27t3.11,10.2V52.21ZM248.8,49.75q6.12,0,9.65-3.5T262,36.53V32.77l-6.68.28q-8,.39-11.47,2.51a7.24,7.24,0,0,0-3.43,6.63,7.1,7.1,0,0,0,2.2,5.57A8.93,8.93,0,0,0,248.8,49.75Z"/><path d="M304.45,52.21V27.42c0-3.84-.81-6.64-2.42-8.38s-4.13-2.62-7.53-2.62q-6.86,0-10,3.46t-3.18,11.23v21.1H277.8V14h3l.67,5.24h.21q3.72-6,13.25-6,13,0,13,14v25Z"/><path d="M344,42.26a9.08,9.08,0,0,1-3.9,7.89q-3.92,2.76-11.08,2.76-7.67,0-12.16-2.36V46.79A26.87,26.87,0,0,0,329,49.68c3.78,0,6.64-.63,8.6-1.89a5.71,5.71,0,0,0,2.93-5,6.14,6.14,0,0,0-2.33-4.86,25.64,25.64,0,0,0-7.69-3.86,45,45,0,0,1-8.05-3.57A11.1,11.1,0,0,1,319,27.12a8.41,8.41,0,0,1-1.18-4.58,7.84,7.84,0,0,1,3.6-6.79q3.6-2.49,10.07-2.5a30.33,30.33,0,0,1,11.75,2.32l-1.31,3.17a27.47,27.47,0,0,0-10.44-2.32A15.1,15.1,0,0,0,324,18a4.77,4.77,0,0,0-2.75,4.29A6,6,0,0,0,323.42,27q2.13,1.79,8.31,4a41.1,41.1,0,0,1,7.53,3.36,11,11,0,0,1,3.53,3.39A8.29,8.29,0,0,1,344,42.26Z"/></g></g></svg>