<svg xmlns="http://www.w3.org/2000/svg" viewBox="0 0 170.06 59.62"><g id="Layer_2" data-name="Layer 2"><g id="Layer_1-2" data-name="Layer 1"><path d="M15,59.62c-3.84,0-6.86-.76-9-2.27A12,12,0,0,1,1.33,51,29.87,29.87,0,0,1,0,41.69V17.5A27.67,27.67,0,0,1,1.4,8.24,11.88,11.88,0,0,1,6.08,2.16C8.27.72,11.23,0,15,0s6.77.72,9,2.16a11.66,11.66,0,0,1,4.64,6.08A28,28,0,0,1,30,17.5V41.76a29.58,29.58,0,0,1-1.33,9.29,12.05,12.05,0,0,1-4.57,6.3C21.89,58.86,18.86,59.62,15,59.62Zm0-4.4a9.57,9.57,0,0,0,5.9-1.54,7.91,7.91,0,0,0,2.77-4.32,24.4,24.4,0,0,0,.76-6.45V16.49a23.93,23.93,0,0,0-.76-6.41,7.49,7.49,0,0,0-2.77-4.21A9.86,9.86,0,0,0,15,4.39,9.9,9.9,0,0,0,9.11,5.87,7.39,7.39,0,0,0,6.3,10.08a24.34,24.34,0,0,0-.76,6.41V42.91a24.82,24.82,0,0,0,.76,6.45,7.81,7.81,0,0,0,2.81,4.32A9.61,9.61,0,0,0,15,55.22Z"/><path d="M47.45,59.54a10.22,10.22,0,0,1-7.92-3.2,13.92,13.92,0,0,1-3.39-8.6l4.4-1.3c.28,3.17,1,5.48,2.23,7a6.16,6.16,0,0,0,5,2.19A5.56,5.56,0,0,0,52,54a6.11,6.11,0,0,0,1.48-4.36,7.89,7.89,0,0,0-1.23-4.07,17.67,17.67,0,0,0-3.89-4.28l-5.61-4.9a20,20,0,0,1-4.25-4.75A10.76,10.76,0,0,1,37.08,26a9.51,9.51,0,0,1,1.26-5.07,8.45,8.45,0,0,1,3.45-3.17A11.37,11.37,0,0,1,47,16.63q4.74,0,7.2,3.06a13.21,13.21,0,0,1,2.66,7.89L53.14,28.8a15,15,0,0,0-.87-4.64,5.59,5.59,0,0,0-2-2.7,5.25,5.25,0,0,0-3.06-.87,5.56,5.56,0,0,0-3.85,1.33,4.73,4.73,0,0,0-1.48,3.71,7.3,7.3,0,0,0,.72,3.31,12.13,12.13,0,0,0,2.67,3.24l5.9,5.26a42.1,42.1,0,0,1,3.31,3.24,15.71,15.71,0,0,1,2.6,3.85,11.63,11.63,0,0,1,1,5A10.26,10.26,0,0,1,56.77,55a8.89,8.89,0,0,1-3.71,3.39A12.41,12.41,0,0,1,47.45,59.54Z"/><path d="M69.05,58.9,62.28,17.28h4.46L72,52.06l6.55-34.78h4.54l6.62,34.63,5-34.63h4.53L92.45,58.9h-4.9l-6.7-33.84L74.38,58.9Z"/><path d="M112.46,59.54a7.56,7.56,0,0,1-4.32-1.26,8.84,8.84,0,0,1-3-3.34,10.08,10.08,0,0,1-1.08-4.68,13.78,13.78,0,0,1,.94-5.4,11,11,0,0,1,2.91-4,26.06,26.06,0,0,1,5.19-3.46c2.13-1.12,4.74-2.38,7.81-3.78V30.67a30.35,30.35,0,0,0-.47-6,5.45,5.45,0,0,0-1.58-3.13,4.73,4.73,0,0,0-3.14-.94,6.56,6.56,0,0,0-3,.65,4.77,4.77,0,0,0-2.09,2.2,9.64,9.64,0,0,0-.79,4.28v1.44l-5.18-.07q.08-6.35,2.7-9.4t8.6-3.06c3.7,0,6.31,1.12,7.85,3.35s2.3,5.7,2.3,10.4V50.62c0,.72,0,1.64,0,2.77s.07,2.19.14,3.2.14,1.78.18,2.31h-4.68c-.14-.92-.3-1.94-.46-3.06s-.28-2-.33-2.7A10.36,10.36,0,0,1,118,57.6,8.07,8.07,0,0,1,112.46,59.54Zm1.73-4.46a5.34,5.34,0,0,0,2.84-.76,10.34,10.34,0,0,0,2.31-1.9A10.83,10.83,0,0,0,121,50.11v-13q-3.1,1.66-5.29,2.92a21.27,21.27,0,0,0-3.57,2.48,7.72,7.72,0,0,0-2,2.77,9.28,9.28,0,0,0-.65,3.64q0,3.32,1.4,4.72A4.59,4.59,0,0,0,114.19,55.08Z"/><path d="M134.64,58.9V.58h5.25V58.9Z"/><path d="M157.68,59.54c-3.56,0-6.11-1.34-7.67-4s-2.34-7.15-2.34-13.39v-7.7a48.68,48.68,0,0,1,.79-9.44,12,12,0,0,1,2.92-6.15,9.2,9.2,0,0,1,10.37-1.08,13.52,13.52,0,0,1,3.06,2.48V.58h5.25V58.9h-5.25v-3a14.28,14.28,0,0,1-3,2.49A7.63,7.63,0,0,1,157.68,59.54Zm1.08-4.1a7,7,0,0,0,3.24-.83,12.67,12.67,0,0,0,2.81-2V23.69a16.83,16.83,0,0,0-2.67-2,6.57,6.57,0,0,0-3.53-1A4.42,4.42,0,0,0,154,23.8a27.64,27.64,0,0,0-1.11,9v9.79a45.3,45.3,0,0,0,.46,7.06A8.85,8.85,0,0,0,155.12,54,4.5,4.5,0,0,0,158.76,55.44Z"/></g></g></svg>