<svg xmlns="http://www.w3.org/2000/svg" viewBox="0 0 340.99 65.81"><g id="Layer_2" data-name="Layer 2"><g id="Layer_1-2" data-name="Layer 1"><path d="M51.7,36a29.37,29.37,0,0,1-1.77,10.4,24.45,24.45,0,0,1-5,8.21A22.44,22.44,0,0,1,37.26,60a24.24,24.24,0,0,1-9.68,1.91A24.12,24.12,0,0,1,17.86,60a22.52,22.52,0,0,1-7.64-5.4,25,25,0,0,1-5-8.21A28.93,28.93,0,0,1,3.38,36a28.93,28.93,0,0,1,1.8-10.4,25,25,0,0,1,5-8.21A22.52,22.52,0,0,1,17.86,12a24.12,24.12,0,0,1,9.72-1.91A24.24,24.24,0,0,1,37.26,12a22.44,22.44,0,0,1,7.67,5.4,24.45,24.45,0,0,1,5,8.21A29.37,29.37,0,0,1,51.7,36Zm-4.61,0a24.16,24.16,0,0,0-2.52-11.27,19.1,19.1,0,0,0-6.88-7.59A18.54,18.54,0,0,0,27.58,14.4a18.52,18.52,0,0,0-17,10.33A24.4,24.4,0,0,0,8.06,36a24.4,24.4,0,0,0,2.49,11.27,18.52,18.52,0,0,0,17,10.33,18.54,18.54,0,0,0,10.11-2.74,19.1,19.1,0,0,0,6.88-7.59A24.16,24.16,0,0,0,47.09,36Zm8.06,29.23a1.93,1.93,0,0,1,1.37.54,1.86,1.86,0,0,1,.58,1.41,3.31,3.31,0,0,1-1.26,2.37,13.4,13.4,0,0,1-3.32,2.13,22.07,22.07,0,0,1-4.32,1.51,18.51,18.51,0,0,1-4.28.54,23.31,23.31,0,0,1-7.16-.94,28.07,28.07,0,0,1-5-2.16,44.63,44.63,0,0,0-4.4-2.16A13.5,13.5,0,0,0,22,67.54a5.54,5.54,0,0,0-2.27.43c-.64.29-1.24.56-1.8.83a4.08,4.08,0,0,1-1.76.39,2,2,0,0,1-1.51-.65A2.07,2.07,0,0,1,14,67a1.86,1.86,0,0,1,1.22-1.87L27.72,60.7l6.62.21L22.9,64.8l.93-1a15.61,15.61,0,0,1,5.4.87,33,33,0,0,1,4.57,2,37.74,37.74,0,0,0,4.65,2.09,16.18,16.18,0,0,0,5.61.9,11.38,11.38,0,0,0,4.65-.83c1.22-.56,2.22-1.05,3-1.48A10.52,10.52,0,0,0,53.46,66,2.32,2.32,0,0,1,55.15,65.23Z" transform="translate(-3.38 -7.92)"/><path d="M89,24.62a2,2,0,0,1,1.55.65,2.12,2.12,0,0,1,.61,1.51V47.09q0,7.13-4,10.87T76.25,61.7q-6.84,0-10.84-3.74t-4-10.87V26.78a2.07,2.07,0,0,1,.64-1.51,2.18,2.18,0,0,1,1.59-.65,2.06,2.06,0,0,1,1.55.65,2.17,2.17,0,0,1,.61,1.51V47.09q0,5.17,2.77,7.88a10.52,10.52,0,0,0,7.67,2.7q5,0,7.74-2.7c1.84-1.8,2.77-4.43,2.77-7.88V26.78A2.15,2.15,0,0,1,89,24.62Z" transform="translate(-3.38 -7.92)"/><path d="M104.47,18.94a3.28,3.28,0,0,1-2.27-.69,2.53,2.53,0,0,1-.75-2v-.72a2.43,2.43,0,0,1,.82-2,3.51,3.51,0,0,1,2.27-.68,3.11,3.11,0,0,1,2.13.68,2.56,2.56,0,0,1,.75,2v.72a2.53,2.53,0,0,1-.75,2A3.17,3.17,0,0,1,104.47,18.94ZM106.63,59a2,2,0,0,1-.65,1.51,2.07,2.07,0,0,1-1.51.65,2,2,0,0,1-1.58-.65,2.17,2.17,0,0,1-.58-1.51V25.92a2.11,2.11,0,0,1,.61-1.51,2.17,2.17,0,0,1,3.1,0,2.11,2.11,0,0,1,.61,1.51Z" transform="translate(-3.38 -7.92)"/><path d="M133.7,23.54a25.44,25.44,0,0,1,6.41.76,13.6,13.6,0,0,1,4.64,2.05,3.59,3.59,0,0,1,1.77,2.81,2.22,2.22,0,0,1-.54,1.4,1.71,1.71,0,0,1-1.41.69,2.28,2.28,0,0,1-1.4-.4,5.47,5.47,0,0,1-1-1,4,4,0,0,0-1.52-1,9.41,9.41,0,0,0-2.7-.83,22.29,22.29,0,0,0-3.92-.32,13.5,13.5,0,0,0-7.27,2,14.56,14.56,0,0,0-5.11,5.4,15.5,15.5,0,0,0-1.88,7.64,16.77,16.77,0,0,0,1.77,7.77,13.34,13.34,0,0,0,5,5.44,13.72,13.72,0,0,0,7.38,2,15.27,15.27,0,0,0,4.46-.51,14.39,14.39,0,0,0,2.74-1.15,7.69,7.69,0,0,0,2-1.55,2.08,2.08,0,0,1,1.66-.75,1.8,1.8,0,0,1,1.37.54,2,2,0,0,1,.5,1.4c0,.77-.57,1.62-1.69,2.56a15.46,15.46,0,0,1-4.65,2.45,20.58,20.58,0,0,1-6.84,1,17.14,17.14,0,0,1-15.73-9.4,21,21,0,0,1-2.27-9.82,20,20,0,0,1,2.31-9.58,18.31,18.31,0,0,1,6.41-6.95A17.35,17.35,0,0,1,133.7,23.54Z" transform="translate(-3.38 -7.92)"/><path d="M157.46,61.2a2.06,2.06,0,0,1-1.55-.65A2.11,2.11,0,0,1,155.3,59v-49a2.11,2.11,0,0,1,.61-1.51,2.17,2.17,0,0,1,3.1,0,2.11,2.11,0,0,1,.61,1.51V59a2.11,2.11,0,0,1-.61,1.51A2.06,2.06,0,0,1,157.46,61.2Zm24.41-36.94a2,2,0,0,1,1.51.69,2.12,2.12,0,0,1,.65,1.47,2.21,2.21,0,0,1-.79,1.66L159,48.67l-.21-5.11L180.43,25A1.91,1.91,0,0,1,181.87,24.26Zm.65,36.94a2.17,2.17,0,0,1-1.66-.79L164.52,43,167.76,40,184,57.38a2.43,2.43,0,0,1,.65,1.66,1.86,1.86,0,0,1-.79,1.58A2.46,2.46,0,0,1,182.52,61.2Z" transform="translate(-3.38 -7.92)"/><path d="M190.94,55.37a2.88,2.88,0,0,1-.54-1.69,1.58,1.58,0,0,1,.9-1.34,1.71,1.71,0,0,1,1.33-.43,2.32,2.32,0,0,1,1.41.72,15.22,15.22,0,0,0,4.71,4.07,13.35,13.35,0,0,0,6.59,1.55,12.11,12.11,0,0,0,4-.69,7.8,7.8,0,0,0,3.27-2.08,5,5,0,0,0,1.3-3.57,4.86,4.86,0,0,0-1.3-3.56,9.51,9.51,0,0,0-3.35-2.16,32.74,32.74,0,0,0-4.42-1.41q-2.46-.64-4.72-1.47a17.53,17.53,0,0,1-4.07-2.09,9.5,9.5,0,0,1-2.84-3.06,8.57,8.57,0,0,1-1-4.39,9,9,0,0,1,1.61-5.33,10.67,10.67,0,0,1,4.5-3.6,15.52,15.52,0,0,1,6.41-1.3,18.23,18.23,0,0,1,4,.47,16.24,16.24,0,0,1,4.11,1.55,12.4,12.4,0,0,1,3.6,3A2,2,0,0,1,217,30a2.17,2.17,0,0,1-.72,1.55,2,2,0,0,1-1.33.39,1.73,1.73,0,0,1-1.26-.61,11,11,0,0,0-4.1-2.92,13.55,13.55,0,0,0-5.11-1,11.78,11.78,0,0,0-3.93.65,7.24,7.24,0,0,0-3.06,2,5.22,5.22,0,0,0-1.22,3.6,5,5,0,0,0,1.48,3.38,10.55,10.55,0,0,0,3.52,2.16,44.17,44.17,0,0,0,4.93,1.58,41.66,41.66,0,0,1,4.43,1.37,15.48,15.48,0,0,1,3.75,2,8.9,8.9,0,0,1,2.59,3,9.45,9.45,0,0,1,1,4.54,8.78,8.78,0,0,1-1.76,5.47,11.3,11.3,0,0,1-4.72,3.53,17.06,17.06,0,0,1-6.55,1.22,19.43,19.43,0,0,1-7.53-1.51A16.23,16.23,0,0,1,190.94,55.37Z" transform="translate(-3.38 -7.92)"/><path d="M257.25,24.41a2,2,0,0,1,1.55.65,2.2,2.2,0,0,1,.61,1.58V59a2,2,0,0,1-.65,1.51,2.07,2.07,0,0,1-1.51.65,2.14,2.14,0,0,1-1.62-.65A2.11,2.11,0,0,1,255,59V50.47l1.3-.5A8.85,8.85,0,0,1,255.2,54a13.94,13.94,0,0,1-3.06,3.88,16,16,0,0,1-4.57,2.88,14.39,14.39,0,0,1-5.73,1.12,15.5,15.5,0,0,1-8.67-2.52,17.26,17.26,0,0,1-6-6.91,21.83,21.83,0,0,1-2.2-9.87,21.12,21.12,0,0,1,2.24-9.9,17.29,17.29,0,0,1,6-6.73,16.17,16.17,0,0,1,14.37-1.37,15,15,0,0,1,4.71,3,13.5,13.5,0,0,1,3.14,4.28,11.86,11.86,0,0,1,1.11,5L255,35.78V26.64a2.2,2.2,0,0,1,.61-1.58A2.1,2.1,0,0,1,257.25,24.41Zm-15,33.48a11.83,11.83,0,0,0,6.76-2,13.58,13.58,0,0,0,4.65-5.47,17.69,17.69,0,0,0,1.69-7.82A16.85,16.85,0,0,0,253.69,35a13.64,13.64,0,0,0-4.65-5.4,11.83,11.83,0,0,0-6.76-2,12.21,12.21,0,0,0-6.74,1.91,13,13,0,0,0-4.68,5.29,17.25,17.25,0,0,0-1.69,7.77,18,18,0,0,0,1.66,7.82,13.18,13.18,0,0,0,4.64,5.47A12,12,0,0,0,242.28,57.89Z" transform="translate(-3.38 -7.92)"/><path d="M288.07,23.54a13.41,13.41,0,0,1,7.59,1.91,10.68,10.68,0,0,1,4.11,5.19A20,20,0,0,1,301,37.87V59a2.22,2.22,0,0,1-2.16,2.16A2.15,2.15,0,0,1,296.64,59V38.09a14.35,14.35,0,0,0-.94-5.26,7.94,7.94,0,0,0-3-3.78,9.8,9.8,0,0,0-5.54-1.4,12.91,12.91,0,0,0-5.87,1.4,12.59,12.59,0,0,0-4.5,3.78A8.76,8.76,0,0,0,275,38.09V59a2.22,2.22,0,0,1-2.16,2.16A2.15,2.15,0,0,1,270.64,59V26.78a2.08,2.08,0,0,1,.65-1.51,2.16,2.16,0,0,1,1.59-.65,2,2,0,0,1,1.54.65,2.13,2.13,0,0,1,.62,1.51v6l-1.66,2.59A9.34,9.34,0,0,1,274.86,31a15.19,15.19,0,0,1,3.42-3.82,16.43,16.43,0,0,1,4.64-2.66A14.34,14.34,0,0,1,288.07,23.54Z" transform="translate(-3.38 -7.92)"/><path d="M342.21,7.92a2.06,2.06,0,0,1,1.55.65,2.11,2.11,0,0,1,.61,1.51V59a2,2,0,0,1-.65,1.51,2.07,2.07,0,0,1-1.51.65,2.14,2.14,0,0,1-1.62-.65A2.11,2.11,0,0,1,340,59V50.47l1.29-1a9.56,9.56,0,0,1-1.08,4.29,13.81,13.81,0,0,1-3.06,4,16.51,16.51,0,0,1-4.6,3,14.27,14.27,0,0,1-5.73,1.15,15.35,15.35,0,0,1-8.64-2.52,17.87,17.87,0,0,1-6.05-6.84,21.28,21.28,0,0,1-2.23-9.86,21.33,21.33,0,0,1,2.23-9.83A17.44,17.44,0,0,1,318.16,26a15.35,15.35,0,0,1,8.57-2.49,15,15,0,0,1,5.69,1.08,15.59,15.59,0,0,1,4.71,3,13.72,13.72,0,0,1,3.21,4.28,11.46,11.46,0,0,1,1.15,5L340,35.78V10.08a2.11,2.11,0,0,1,.61-1.51A2.14,2.14,0,0,1,342.21,7.92Zm-15,50a11.86,11.86,0,0,0,6.77-2,13.64,13.64,0,0,0,4.65-5.4,17.51,17.51,0,0,0,1.69-7.81A17.33,17.33,0,0,0,338.65,35,13.41,13.41,0,0,0,334,29.59a12.71,12.71,0,0,0-13.5,0A13.33,13.33,0,0,0,315.82,35a17.2,17.2,0,0,0-1.69,7.74,17.39,17.39,0,0,0,1.69,7.77,13.47,13.47,0,0,0,4.68,5.44A11.92,11.92,0,0,0,327.23,57.89Z" transform="translate(-3.38 -7.92)"/></g></g></svg>