<?xml version="1.0" encoding="utf-8"?>
<!-- Generator: Adobe Illustrator 24.1.0, SVG Export Plug-In . SVG Version: 6.00 Build 0)  -->
<svg version="1.1" id="Layer_1" xmlns="http://www.w3.org/2000/svg" xmlns:xlink="http://www.w3.org/1999/xlink" x="0px" y="0px"
	 viewBox="0 0 230.7 81.1" style="enable-background:new 0 0 230.7 81.1;" xml:space="preserve">
<style type="text/css">
	.st0{enable-background:new    ;}
</style>
<g id="Layer_2_1_">
	<g id="Layer_1-2">
		<g class="st0">
			<path d="M24.7,40.9h-12v20.7H5.9V10.4h16.9c5.8,0,10.2,1.3,13.3,3.9c3.1,2.6,4.7,6.4,4.7,11.5c0,3.2-0.9,6-2.6,8.3
				s-4.1,4.1-7.2,5.3l12,21.7v0.4h-7.2L24.7,40.9z M12.7,35.4h10.4c3.4,0,6-0.9,8-2.6c2-1.7,3-4.1,3-7c0-3.2-0.9-5.6-2.8-7.3
				c-1.9-1.7-4.6-2.5-8.2-2.6H12.7V35.4z"/>
			<path d="M47.5,42.2c0-3.7,0.7-7.1,2.2-10.1c1.5-3,3.5-5.3,6.1-6.9c2.6-1.6,5.6-2.4,8.9-2.4c5.2,0,9.4,1.8,12.6,5.4
				s4.8,8.4,4.8,14.3V43c0,3.7-0.7,7-2.1,10c-1.4,2.9-3.4,5.2-6.1,6.9s-5.7,2.5-9.1,2.5c-5.2,0-9.3-1.8-12.5-5.4s-4.8-8.3-4.8-14.2
				V42.2z M54.1,43c0,4.2,1,7.6,2.9,10.2c2,2.6,4.6,3.8,7.9,3.8c3.3,0,5.9-1.3,7.9-3.9c1.9-2.6,2.9-6.2,2.9-10.9c0-4.2-1-7.6-3-10.1
				c-2-2.6-4.6-3.9-7.9-3.9c-3.2,0-5.8,1.3-7.8,3.8S54.1,38.2,54.1,43z"/>
			<path d="M122.5,43c0,5.8-1.3,10.5-4,14s-6.3,5.3-10.8,5.3c-4.8,0-8.5-1.7-11.1-5.1l-0.3,4.4h-6v-54h6.5v20.1
				c2.6-3.3,6.2-4.9,10.9-4.9c4.6,0,8.2,1.7,10.9,5.2s4,8.3,4,14.3V43z M116,42.3c0-4.4-0.9-7.9-2.6-10.3c-1.7-2.4-4.2-3.6-7.4-3.6
				c-4.3,0-7.4,2-9.2,6v16.5c2,4,5.1,6,9.3,6c3.1,0,5.5-1.2,7.3-3.6C115.1,50.7,116,47.1,116,42.3z"/>
			<path d="M129,42.2c0-3.7,0.7-7.1,2.2-10.1s3.5-5.3,6.1-6.9s5.6-2.4,8.9-2.4c5.2,0,9.4,1.8,12.6,5.4s4.8,8.4,4.8,14.3V43
				c0,3.7-0.7,7-2.1,10s-3.4,5.2-6.1,6.9s-5.7,2.5-9.1,2.5c-5.2,0-9.3-1.8-12.5-5.4s-4.8-8.3-4.8-14.2V42.2z M135.5,43
				c0,4.2,1,7.6,2.9,10.2s4.6,3.8,7.9,3.8c3.3,0,5.9-1.3,7.9-3.9s2.9-6.2,2.9-10.9c0-4.2-1-7.6-3-10.1s-4.6-3.9-7.9-3.9
				c-3.2,0-5.8,1.3-7.8,3.8S135.5,38.2,135.5,43z"/>
		</g>
		<g class="st0">
			<path d="M180.6,14.3v9.2h7.1v5h-7.1v23.6c0,1.5,0.3,2.7,0.9,3.4s1.7,1.1,3.2,1.1c0.8,0,1.8-0.1,3.1-0.4v5.2
				c-1.7,0.5-3.4,0.7-5,0.7c-2.9,0-5.1-0.9-6.6-2.6s-2.2-4.3-2.2-7.5V28.6h-6.9v-5h6.9v-9.2H180.6z"/>
		</g>
		<g class="st0">
			<path d="M192.9,42.2c0-3.7,0.7-7.1,2.2-10.1s3.5-5.3,6.1-6.9s5.6-2.4,8.9-2.4c5.2,0,9.4,1.8,12.6,5.4s4.8,8.4,4.8,14.3V43
				c0,3.7-0.7,7-2.1,10s-3.4,5.2-6.1,6.9s-5.7,2.5-9.1,2.5c-5.2,0-9.3-1.8-12.5-5.4s-4.8-8.3-4.8-14.2V42.2z M199.4,43
				c0,4.2,1,7.6,2.9,10.2s4.6,3.8,7.9,3.8c3.3,0,5.9-1.3,7.9-3.9s2.9-6.2,2.9-10.9c0-4.2-1-7.6-3-10.1s-4.6-3.9-7.9-3.9
				c-3.2,0-5.8,1.3-7.8,3.8S199.4,38.2,199.4,43z"/>
		</g>
	</g>
</g>
</svg>
