<svg xmlns="http://www.w3.org/2000/svg" viewBox="0 0 123.03 217.71"><defs><style>.cls-1{fill:none;stroke-width:12px;}.cls-1,.cls-2{stroke:#c5fffe;stroke-miterlimit:10;}.cls-2{fill:#c5fffe;stroke-width:3px;}</style></defs><g id="Layer_2" data-name="Layer 2"><g id="Layer_1-2" data-name="Layer 1"><g id="scroll"><g id="rect"><path class="cls-1" d="M61.49,6h0A54.5,54.5,0,0,1,116,60.5c-4.3,47.8,22,149.8-54.5,151.2-30.4.5-55.2-26.6-54.5-54.5C11,107.5-14.31,7.3,61.49,6Z"/><path class="cls-2" d="M61.89,32.6h0A5.12,5.12,0,0,1,67,37.7V58.4a5.12,5.12,0,0,1-5.1,5.1,5.18,5.18,0,0,1-5.1-5.1V37.5A5.15,5.15,0,0,1,61.89,32.6Z"/></g></g></g></g></svg>