<svg xmlns="http://www.w3.org/2000/svg" xmlns:xlink="http://www.w3.org/1999/xlink" viewBox="0 0 413.65 63.69"><defs><style>.cls-1{fill:url(#linear-gradient);}.cls-2{clip-path:url(#clip-path);}.cls-3{fill:url(#linear-gradient-3);}</style><linearGradient id="linear-gradient" x1="-11.58" y1="20.48" x2="392.27" y2="36.34" gradientUnits="userSpaceOnUse"><stop offset="0.1" stop-color="#f6c969"/><stop offset="1" stop-color="#1d1d1b"/></linearGradient><clipPath id="clip-path" transform="translate(6.09 5.51)"><path class="cls-1" d="M14.26,54a17.7,17.7,0,0,1-7.64-1.66A14.58,14.58,0,0,1,.86,47.59,4.57,4.57,0,0,1,0,45.07a3.85,3.85,0,0,1,1.4-3,4.26,4.26,0,0,1,2.78-1.23,4,4,0,0,1,2.12.65A10.76,10.76,0,0,1,8.21,43a9.31,9.31,0,0,0,2.84,1.84,8.93,8.93,0,0,0,3.21.54,7.93,7.93,0,0,0,4-1.08,8.68,8.68,0,0,0,3-2.88,7.07,7.07,0,0,0,1.15-3.89V7.27a4.09,4.09,0,0,1,1.37-3.13A4.54,4.54,0,0,1,27,2.88a4.25,4.25,0,0,1,4.46,4.39V37.51a15.22,15.22,0,0,1-2.3,8.14A17.93,17.93,0,0,1,23,51.7,16.82,16.82,0,0,1,14.26,54ZM69.12,14a4.23,4.23,0,0,1,3.1,1.22,4.33,4.33,0,0,1,1.22,3.17V48.89A4.33,4.33,0,0,1,72.22,52,4.44,4.44,0,0,1,66,52a4.33,4.33,0,0,1-1.22-3.13V45.36l1.58.65a4.07,4.07,0,0,1-1,2.27,14.13,14.13,0,0,1-2.74,2.62,16.56,16.56,0,0,1-4.07,2.2,14,14,0,0,1-5.07.9,16.38,16.38,0,0,1-9-2.56,17.94,17.94,0,0,1-6.38-7,22.09,22.09,0,0,1-2.34-10.33,22.25,22.25,0,0,1,2.34-10.41,18.13,18.13,0,0,1,6.3-7A15.83,15.83,0,0,1,53.21,14,16.53,16.53,0,0,1,58.9,15a17.12,17.12,0,0,1,4.5,2.37,13.61,13.61,0,0,1,2.95,2.92,4.66,4.66,0,0,1,1,2.48l-2.59.94V18.43A4.33,4.33,0,0,1,66,15.3,4.15,4.15,0,0,1,69.12,14Zm-14.54,32a9.79,9.79,0,0,0,5.54-1.58,10.8,10.8,0,0,0,3.71-4.32,13.94,13.94,0,0,0,1.33-6.12,14.11,14.11,0,0,0-1.33-6.2,10.8,10.8,0,0,0-3.71-4.32,10.4,10.4,0,0,0-11,0,10.7,10.7,0,0,0-3.7,4.32,14,14,0,0,0-1.34,6.2,13.81,13.81,0,0,0,1.34,6.12,10.7,10.7,0,0,0,3.7,4.32A9.7,9.7,0,0,0,54.58,46.08Zm29.66,7.2A4.15,4.15,0,0,1,81.14,52a4.33,4.33,0,0,1-1.22-3.13V4.39a4.33,4.33,0,0,1,1.22-3.13,4.43,4.43,0,0,1,6.19,0,4.3,4.3,0,0,1,1.23,3.13v44.5A4.3,4.3,0,0,1,87.33,52,4.11,4.11,0,0,1,84.24,53.28Zm22.89-38.52A3.74,3.74,0,0,1,110,16.13a4.06,4.06,0,0,1,1.23,2.66A4.34,4.34,0,0,1,109.51,22L87.84,42,87.48,32,104,16.13A4.34,4.34,0,0,1,107.13,14.76Zm1.08,38.45a4.09,4.09,0,0,1-3.16-1.44L91.73,37.66l6.55-6,13,14.11A4.6,4.6,0,0,1,112.61,49,3.76,3.76,0,0,1,111.13,52,4.69,4.69,0,0,1,108.21,53.21Zm36.58-38.45a4.15,4.15,0,0,1,3.1,1.26,4.33,4.33,0,0,1,1.22,3.13V37.44q0,7.64-4.25,12.1T132.62,54q-8,0-12.2-4.46t-4.21-12.1V19.15A4.29,4.29,0,0,1,117.43,16a4.43,4.43,0,0,1,6.19,0,4.3,4.3,0,0,1,1.23,3.13V37.44c0,2.93.64,5.1,1.94,6.52s3.24,2.12,5.83,2.12,4.61-.71,5.91-2.12,1.94-3.59,1.94-6.52V19.15A4.33,4.33,0,0,1,141.69,16,4.15,4.15,0,0,1,144.79,14.76Zm30-.72a16.37,16.37,0,0,1,9,2.56,18.2,18.2,0,0,1,6.34,7A22.1,22.1,0,0,1,192.52,34a22.37,22.37,0,0,1-2.33,10.41,18.3,18.3,0,0,1-6.27,7A15.78,15.78,0,0,1,175.1,54a15.25,15.25,0,0,1-5.4-.94,17.14,17.14,0,0,1-4.43-2.37,13.61,13.61,0,0,1-3-2.92,4.58,4.58,0,0,1-1-2.48l2.23-.94v5.26a4.33,4.33,0,0,1-1.22,3.13,4.15,4.15,0,0,1-3.1,1.26,4.23,4.23,0,0,1-3.1-1.22,4.33,4.33,0,0,1-1.22-3.17V4.39a4.33,4.33,0,0,1,1.22-3.13,4.44,4.44,0,0,1,6.2,0,4.33,4.33,0,0,1,1.22,3.13V22.68L162.29,22a4.07,4.07,0,0,1,1-2.27A14.85,14.85,0,0,1,166,17.1a15.61,15.61,0,0,1,4-2.2A13.51,13.51,0,0,1,174.81,14ZM173.73,22a9.79,9.79,0,0,0-5.54,1.58,10.77,10.77,0,0,0-3.71,4.29A13.69,13.69,0,0,0,163.15,34a14,14,0,0,0,1.33,6.16,10.65,10.65,0,0,0,3.71,4.36,9.79,9.79,0,0,0,5.54,1.58,9.64,9.64,0,0,0,5.51-1.58,10.79,10.79,0,0,0,3.67-4.36A14,14,0,0,0,184.24,34a13.69,13.69,0,0,0-1.33-6.15,10.91,10.91,0,0,0-3.67-4.29A9.64,9.64,0,0,0,173.73,22Zm51.41,32a17.62,17.62,0,0,1-7.63-1.66,14.58,14.58,0,0,1-5.76-4.75,4.51,4.51,0,0,1-.87-2.52,3.83,3.83,0,0,1,1.41-3,4.24,4.24,0,0,1,2.77-1.23,4,4,0,0,1,2.12.65A10.41,10.41,0,0,1,219.09,43a9.23,9.23,0,0,0,2.85,1.84,8.83,8.83,0,0,0,3.2.54,7.93,7.93,0,0,0,4-1.08,8.71,8.71,0,0,0,3-2.88,7.15,7.15,0,0,0,1.15-3.89V7.27a4.05,4.05,0,0,1,1.37-3.13,4.51,4.51,0,0,1,3.16-1.26,4.26,4.26,0,0,1,4.47,4.39V37.51A15.23,15.23,0,0,1,240,45.65a17.85,17.85,0,0,1-6.19,6.05A16.8,16.8,0,0,1,225.14,54ZM280,14a4.23,4.23,0,0,1,3.1,1.22,4.33,4.33,0,0,1,1.22,3.17V48.89A4.33,4.33,0,0,1,283.1,52a4.43,4.43,0,0,1-6.19,0,4.3,4.3,0,0,1-1.23-3.13V45.36l1.59.65a4.09,4.09,0,0,1-1,2.27,13.84,13.84,0,0,1-2.74,2.62,16.56,16.56,0,0,1-4.07,2.2,14,14,0,0,1-5.07.9,16.42,16.42,0,0,1-9-2.56,17.91,17.91,0,0,1-6.37-7,22.09,22.09,0,0,1-2.34-10.33A22.25,22.25,0,0,1,249,23.65a18.13,18.13,0,0,1,6.3-7A15.79,15.79,0,0,1,264.09,14a16.53,16.53,0,0,1,5.69.94,16.81,16.81,0,0,1,4.5,2.37,13.61,13.61,0,0,1,3,2.92,4.58,4.58,0,0,1,1,2.48l-2.59.94V18.43a4.3,4.3,0,0,1,1.23-3.13A4.11,4.11,0,0,1,280,14Zm-14.54,32A9.79,9.79,0,0,0,271,44.5a10.72,10.72,0,0,0,3.71-4.32A13.81,13.81,0,0,0,276,34.06a14,14,0,0,0-1.33-6.2A10.72,10.72,0,0,0,271,23.54,9.79,9.79,0,0,0,265.46,22,9.65,9.65,0,0,0,260,23.54a10.72,10.72,0,0,0-3.71,4.32,14,14,0,0,0-1.33,6.2,13.81,13.81,0,0,0,1.33,6.12A10.72,10.72,0,0,0,260,44.5,9.65,9.65,0,0,0,265.46,46.08Zm45.21-32q5.32,0,8.1,2.23a11.38,11.38,0,0,1,3.82,5.94,30.63,30.63,0,0,1,1,8.25V48.89A4.33,4.33,0,0,1,322.41,52a4.43,4.43,0,0,1-6.19,0A4.3,4.3,0,0,1,315,48.89V30.46a13.94,13.94,0,0,0-.61-4.29,6,6,0,0,0-2.19-3.06A7.63,7.63,0,0,0,307.65,22a9.5,9.5,0,0,0-4.86,1.15,7.85,7.85,0,0,0-3,3.06,8.74,8.74,0,0,0-1,4.29V48.89A4.33,4.33,0,0,1,297.5,52a4.43,4.43,0,0,1-6.19,0,4.3,4.3,0,0,1-1.23-3.13V19.15A4.3,4.3,0,0,1,291.31,16a4.43,4.43,0,0,1,6.19,0,4.33,4.33,0,0,1,1.22,3.13v3.1L297.64,22a14.77,14.77,0,0,1,1.87-2.63,18.27,18.27,0,0,1,2.88-2.62,14.4,14.4,0,0,1,3.75-2A13.05,13.05,0,0,1,310.67,14Zm22.47-4a5.7,5.7,0,0,1-3.46-.79,3.4,3.4,0,0,1-1-2.81V5.11a3.18,3.18,0,0,1,1.12-2.84,6.1,6.1,0,0,1,3.42-.76,6,6,0,0,1,3.53.79,3.4,3.4,0,0,1,1,2.81V6.48a3.27,3.27,0,0,1-1.08,2.84A6.27,6.27,0,0,1,333.14,10.08Zm4.39,38.81A4.3,4.3,0,0,1,336.3,52a4.43,4.43,0,0,1-6.19,0,4.33,4.33,0,0,1-1.22-3.13V19.15A4.33,4.33,0,0,1,330.11,16a4.43,4.43,0,0,1,6.19,0,4.3,4.3,0,0,1,1.23,3.13Zm3-1.59a4.06,4.06,0,0,1-.65-2.59A3.48,3.48,0,0,1,341.78,42a3.89,3.89,0,0,1,2.44-.62,4.09,4.09,0,0,1,2.52,1.34,17.18,17.18,0,0,0,4.4,3.24,12.9,12.9,0,0,0,5.76,1.15,19.15,19.15,0,0,0,2.37-.33,4.48,4.48,0,0,0,2.27-1.15,3.59,3.59,0,0,0,1-2.77,3.15,3.15,0,0,0-1.08-2.52,9.18,9.18,0,0,0-2.84-1.58c-1.18-.44-2.49-.84-3.93-1.23s-3-.91-4.57-1.44a19,19,0,0,1-4.28-2,9.89,9.89,0,0,1-3.17-3.35,10.2,10.2,0,0,1-1.22-5.25,9.51,9.51,0,0,1,2-6.12,13.24,13.24,0,0,1,5.22-3.89A17,17,0,0,1,355.38,14a21.7,21.7,0,0,1,4.68.54,18.17,18.17,0,0,1,4.68,1.73,11.51,11.51,0,0,1,3.75,3.13,5,5,0,0,1,.93,2.59,3.1,3.1,0,0,1-1.36,2.74,3.46,3.46,0,0,1-2.52.75,3.77,3.77,0,0,1-2.38-1A8.65,8.65,0,0,0,359.88,22a11.28,11.28,0,0,0-4.71-.93,11.82,11.82,0,0,0-2.34.25,4.7,4.7,0,0,0-2.2,1.08,3.35,3.35,0,0,0-.93,2.63,3.34,3.34,0,0,0,1.08,2.62,8.18,8.18,0,0,0,2.91,1.59c1.23.41,2.53.8,3.93,1.19s2.9.84,4.39,1.36a17.59,17.59,0,0,1,4.1,2.09,10,10,0,0,1,3,3.35,10.67,10.67,0,0,1,1.15,5.22,9.43,9.43,0,0,1-2.16,6.26,13.69,13.69,0,0,1-5.4,3.93A17.25,17.25,0,0,1,356.1,54a25.56,25.56,0,0,1-8.49-1.48A14.67,14.67,0,0,1,340.55,47.3Zm57.89-1.94a4,4,0,0,1,2.88,1.12,3.77,3.77,0,0,1,1.15,2.84,3.83,3.83,0,0,1-1.15,2.81,3.9,3.9,0,0,1-2.88,1.15H375.26a3.54,3.54,0,0,1-2.88-1.3,3.69,3.69,0,0,1-1-2.59,10.12,10.12,0,0,1,.29-1.91,5.31,5.31,0,0,1,1.08-1.9l17.92-23.19-.14,1H375.9a3.93,3.93,0,0,1-4-4A3.71,3.71,0,0,1,373,16.6a4,4,0,0,1,2.88-1.12h22.18a3.74,3.74,0,0,1,2.81,1.22,3.9,3.9,0,0,1,1,3.1,10.37,10.37,0,0,1-.26,1.44,4.91,4.91,0,0,1-1,1.73L383,45.79v-.43Z"/></clipPath><linearGradient id="linear-gradient-3" x1="189.33" y1="115.47" x2="225.78" y2="-58.77" gradientUnits="userSpaceOnUse"><stop offset="0.09" stop-color="#797ef7"/><stop offset="0.66" stop-color="#00ffce"/></linearGradient></defs><g id="Layer_2" data-name="Layer 2"><g id="Layer_1-2" data-name="Layer 1"><path class="cls-1" d="M14.26,54a17.7,17.7,0,0,1-7.64-1.66A14.58,14.58,0,0,1,.86,47.59,4.57,4.57,0,0,1,0,45.07a3.85,3.85,0,0,1,1.4-3,4.26,4.26,0,0,1,2.78-1.23,4,4,0,0,1,2.12.65A10.76,10.76,0,0,1,8.21,43a9.31,9.31,0,0,0,2.84,1.84,8.93,8.93,0,0,0,3.21.54,7.93,7.93,0,0,0,4-1.08,8.68,8.68,0,0,0,3-2.88,7.07,7.07,0,0,0,1.15-3.89V7.27a4.09,4.09,0,0,1,1.37-3.13A4.54,4.54,0,0,1,27,2.88a4.25,4.25,0,0,1,4.46,4.39V37.51a15.22,15.22,0,0,1-2.3,8.14A17.93,17.93,0,0,1,23,51.7,16.82,16.82,0,0,1,14.26,54ZM69.12,14a4.23,4.23,0,0,1,3.1,1.22,4.33,4.33,0,0,1,1.22,3.17V48.89A4.33,4.33,0,0,1,72.22,52,4.44,4.44,0,0,1,66,52a4.33,4.33,0,0,1-1.22-3.13V45.36l1.58.65a4.07,4.07,0,0,1-1,2.27,14.13,14.13,0,0,1-2.74,2.62,16.56,16.56,0,0,1-4.07,2.2,14,14,0,0,1-5.07.9,16.38,16.38,0,0,1-9-2.56,17.94,17.94,0,0,1-6.38-7,22.09,22.09,0,0,1-2.34-10.33,22.25,22.25,0,0,1,2.34-10.41,18.13,18.13,0,0,1,6.3-7A15.83,15.83,0,0,1,53.21,14,16.53,16.53,0,0,1,58.9,15a17.12,17.12,0,0,1,4.5,2.37,13.61,13.61,0,0,1,2.95,2.92,4.66,4.66,0,0,1,1,2.48l-2.59.94V18.43A4.33,4.33,0,0,1,66,15.3,4.15,4.15,0,0,1,69.12,14Zm-14.54,32a9.79,9.79,0,0,0,5.54-1.58,10.8,10.8,0,0,0,3.71-4.32,13.94,13.94,0,0,0,1.33-6.12,14.11,14.11,0,0,0-1.33-6.2,10.8,10.8,0,0,0-3.71-4.32,10.4,10.4,0,0,0-11,0,10.7,10.7,0,0,0-3.7,4.32,14,14,0,0,0-1.34,6.2,13.81,13.81,0,0,0,1.34,6.12,10.7,10.7,0,0,0,3.7,4.32A9.7,9.7,0,0,0,54.58,46.08Zm29.66,7.2A4.15,4.15,0,0,1,81.14,52a4.33,4.33,0,0,1-1.22-3.13V4.39a4.33,4.33,0,0,1,1.22-3.13,4.43,4.43,0,0,1,6.19,0,4.3,4.3,0,0,1,1.23,3.13v44.5A4.3,4.3,0,0,1,87.33,52,4.11,4.11,0,0,1,84.24,53.28Zm22.89-38.52A3.74,3.74,0,0,1,110,16.13a4.06,4.06,0,0,1,1.23,2.66A4.34,4.34,0,0,1,109.51,22L87.84,42,87.48,32,104,16.13A4.34,4.34,0,0,1,107.13,14.76Zm1.08,38.45a4.09,4.09,0,0,1-3.16-1.44L91.73,37.66l6.55-6,13,14.11A4.6,4.6,0,0,1,112.61,49,3.76,3.76,0,0,1,111.13,52,4.69,4.69,0,0,1,108.21,53.21Zm36.58-38.45a4.15,4.15,0,0,1,3.1,1.26,4.33,4.33,0,0,1,1.22,3.13V37.44q0,7.64-4.25,12.1T132.62,54q-8,0-12.2-4.46t-4.21-12.1V19.15A4.29,4.29,0,0,1,117.43,16a4.43,4.43,0,0,1,6.19,0,4.3,4.3,0,0,1,1.23,3.13V37.44c0,2.93.64,5.1,1.94,6.52s3.24,2.12,5.83,2.12,4.61-.71,5.91-2.12,1.94-3.59,1.94-6.52V19.15A4.33,4.33,0,0,1,141.69,16,4.15,4.15,0,0,1,144.79,14.76Zm30-.72a16.37,16.37,0,0,1,9,2.56,18.2,18.2,0,0,1,6.34,7A22.1,22.1,0,0,1,192.52,34a22.37,22.37,0,0,1-2.33,10.41,18.3,18.3,0,0,1-6.27,7A15.78,15.78,0,0,1,175.1,54a15.25,15.25,0,0,1-5.4-.94,17.14,17.14,0,0,1-4.43-2.37,13.61,13.61,0,0,1-3-2.92,4.58,4.58,0,0,1-1-2.48l2.23-.94v5.26a4.33,4.33,0,0,1-1.22,3.13,4.15,4.15,0,0,1-3.1,1.26,4.23,4.23,0,0,1-3.1-1.22,4.33,4.33,0,0,1-1.22-3.17V4.39a4.33,4.33,0,0,1,1.22-3.13,4.44,4.44,0,0,1,6.2,0,4.33,4.33,0,0,1,1.22,3.13V22.68L162.29,22a4.07,4.07,0,0,1,1-2.27A14.85,14.85,0,0,1,166,17.1a15.61,15.61,0,0,1,4-2.2A13.51,13.51,0,0,1,174.81,14ZM173.73,22a9.79,9.79,0,0,0-5.54,1.58,10.77,10.77,0,0,0-3.71,4.29A13.69,13.69,0,0,0,163.15,34a14,14,0,0,0,1.33,6.16,10.65,10.65,0,0,0,3.71,4.36,9.79,9.79,0,0,0,5.54,1.58,9.64,9.64,0,0,0,5.51-1.58,10.79,10.79,0,0,0,3.67-4.36A14,14,0,0,0,184.24,34a13.69,13.69,0,0,0-1.33-6.15,10.91,10.91,0,0,0-3.67-4.29A9.64,9.64,0,0,0,173.73,22Zm51.41,32a17.62,17.62,0,0,1-7.63-1.66,14.58,14.58,0,0,1-5.76-4.75,4.51,4.51,0,0,1-.87-2.52,3.83,3.83,0,0,1,1.41-3,4.24,4.24,0,0,1,2.77-1.23,4,4,0,0,1,2.12.65A10.41,10.41,0,0,1,219.09,43a9.23,9.23,0,0,0,2.85,1.84,8.83,8.83,0,0,0,3.2.54,7.93,7.93,0,0,0,4-1.08,8.71,8.71,0,0,0,3-2.88,7.15,7.15,0,0,0,1.15-3.89V7.27a4.05,4.05,0,0,1,1.37-3.13,4.51,4.51,0,0,1,3.16-1.26,4.26,4.26,0,0,1,4.47,4.39V37.51A15.23,15.23,0,0,1,240,45.65a17.85,17.85,0,0,1-6.19,6.05A16.8,16.8,0,0,1,225.14,54ZM280,14a4.23,4.23,0,0,1,3.1,1.22,4.33,4.33,0,0,1,1.22,3.17V48.89A4.33,4.33,0,0,1,283.1,52a4.43,4.43,0,0,1-6.19,0,4.3,4.3,0,0,1-1.23-3.13V45.36l1.59.65a4.09,4.09,0,0,1-1,2.27,13.84,13.84,0,0,1-2.74,2.62,16.56,16.56,0,0,1-4.07,2.2,14,14,0,0,1-5.07.9,16.42,16.42,0,0,1-9-2.56,17.91,17.91,0,0,1-6.37-7,22.09,22.09,0,0,1-2.34-10.33A22.25,22.25,0,0,1,249,23.65a18.13,18.13,0,0,1,6.3-7A15.79,15.79,0,0,1,264.09,14a16.53,16.53,0,0,1,5.69.94,16.81,16.81,0,0,1,4.5,2.37,13.61,13.61,0,0,1,3,2.92,4.58,4.58,0,0,1,1,2.48l-2.59.94V18.43a4.3,4.3,0,0,1,1.23-3.13A4.11,4.11,0,0,1,280,14Zm-14.54,32A9.79,9.79,0,0,0,271,44.5a10.72,10.72,0,0,0,3.71-4.32A13.81,13.81,0,0,0,276,34.06a14,14,0,0,0-1.33-6.2A10.72,10.72,0,0,0,271,23.54,9.79,9.79,0,0,0,265.46,22,9.65,9.65,0,0,0,260,23.54a10.72,10.72,0,0,0-3.71,4.32,14,14,0,0,0-1.33,6.2,13.81,13.81,0,0,0,1.33,6.12A10.72,10.72,0,0,0,260,44.5,9.65,9.65,0,0,0,265.46,46.08Zm45.21-32q5.32,0,8.1,2.23a11.38,11.38,0,0,1,3.82,5.94,30.63,30.63,0,0,1,1,8.25V48.89A4.33,4.33,0,0,1,322.41,52a4.43,4.43,0,0,1-6.19,0A4.3,4.3,0,0,1,315,48.89V30.46a13.94,13.94,0,0,0-.61-4.29,6,6,0,0,0-2.19-3.06A7.63,7.63,0,0,0,307.65,22a9.5,9.5,0,0,0-4.86,1.15,7.85,7.85,0,0,0-3,3.06,8.74,8.74,0,0,0-1,4.29V48.89A4.33,4.33,0,0,1,297.5,52a4.43,4.43,0,0,1-6.19,0,4.3,4.3,0,0,1-1.23-3.13V19.15A4.3,4.3,0,0,1,291.31,16a4.43,4.43,0,0,1,6.19,0,4.33,4.33,0,0,1,1.22,3.13v3.1L297.64,22a14.77,14.77,0,0,1,1.87-2.63,18.27,18.27,0,0,1,2.88-2.62,14.4,14.4,0,0,1,3.75-2A13.05,13.05,0,0,1,310.67,14Zm22.47-4a5.7,5.7,0,0,1-3.46-.79,3.4,3.4,0,0,1-1-2.81V5.11a3.18,3.18,0,0,1,1.12-2.84,6.1,6.1,0,0,1,3.42-.76,6,6,0,0,1,3.53.79,3.4,3.4,0,0,1,1,2.81V6.48a3.27,3.27,0,0,1-1.08,2.84A6.27,6.27,0,0,1,333.14,10.08Zm4.39,38.81A4.3,4.3,0,0,1,336.3,52a4.43,4.43,0,0,1-6.19,0,4.33,4.33,0,0,1-1.22-3.13V19.15A4.33,4.33,0,0,1,330.11,16a4.43,4.43,0,0,1,6.19,0,4.3,4.3,0,0,1,1.23,3.13Zm3-1.59a4.06,4.06,0,0,1-.65-2.59A3.48,3.48,0,0,1,341.78,42a3.89,3.89,0,0,1,2.44-.62,4.09,4.09,0,0,1,2.52,1.34,17.18,17.18,0,0,0,4.4,3.24,12.9,12.9,0,0,0,5.76,1.15,19.15,19.15,0,0,0,2.37-.33,4.48,4.48,0,0,0,2.27-1.15,3.59,3.59,0,0,0,1-2.77,3.15,3.15,0,0,0-1.08-2.52,9.18,9.18,0,0,0-2.84-1.58c-1.18-.44-2.49-.84-3.93-1.23s-3-.91-4.57-1.44a19,19,0,0,1-4.28-2,9.89,9.89,0,0,1-3.17-3.35,10.2,10.2,0,0,1-1.22-5.25,9.51,9.51,0,0,1,2-6.12,13.24,13.24,0,0,1,5.22-3.89A17,17,0,0,1,355.38,14a21.7,21.7,0,0,1,4.68.54,18.17,18.17,0,0,1,4.68,1.73,11.51,11.51,0,0,1,3.75,3.13,5,5,0,0,1,.93,2.59,3.1,3.1,0,0,1-1.36,2.74,3.46,3.46,0,0,1-2.52.75,3.77,3.77,0,0,1-2.38-1A8.65,8.65,0,0,0,359.88,22a11.28,11.28,0,0,0-4.71-.93,11.82,11.82,0,0,0-2.34.25,4.7,4.7,0,0,0-2.2,1.08,3.35,3.35,0,0,0-.93,2.63,3.34,3.34,0,0,0,1.08,2.62,8.18,8.18,0,0,0,2.91,1.59c1.23.41,2.53.8,3.93,1.19s2.9.84,4.39,1.36a17.59,17.59,0,0,1,4.1,2.09,10,10,0,0,1,3,3.35,10.67,10.67,0,0,1,1.15,5.22,9.43,9.43,0,0,1-2.16,6.26,13.69,13.69,0,0,1-5.4,3.93A17.25,17.25,0,0,1,356.1,54a25.56,25.56,0,0,1-8.49-1.48A14.67,14.67,0,0,1,340.55,47.3Zm57.89-1.94a4,4,0,0,1,2.88,1.12,3.77,3.77,0,0,1,1.15,2.84,3.83,3.83,0,0,1-1.15,2.81,3.9,3.9,0,0,1-2.88,1.15H375.26a3.54,3.54,0,0,1-2.88-1.3,3.69,3.69,0,0,1-1-2.59,10.12,10.12,0,0,1,.29-1.91,5.31,5.31,0,0,1,1.08-1.9l17.92-23.19-.14,1H375.9a3.93,3.93,0,0,1-4-4A3.71,3.71,0,0,1,373,16.6a4,4,0,0,1,2.88-1.12h22.18a3.74,3.74,0,0,1,2.81,1.22,3.9,3.9,0,0,1,1,3.1,10.37,10.37,0,0,1-.26,1.44,4.91,4.91,0,0,1-1,1.73L383,45.79v-.43Z" transform="translate(6.09 5.51)"/><g class="cls-2"><rect class="cls-3" width="413.65" height="63.69"/></g></g></g></svg>