<svg xmlns="http://www.w3.org/2000/svg" xmlns:xlink="http://www.w3.org/1999/xlink" viewBox="0 0 246.24 246.25"><defs><style>.cls-1,.cls-2,.cls-6{fill:none;}.cls-2,.cls-6{stroke:#c5fffe;stroke-miterlimit:10;}.cls-2{stroke-width:6px;}.cls-2,.cls-3{opacity:0.33;isolation:isolate;}.cls-3,.cls-4{fill:#c5fffe;}.cls-5{clip-path:url(#clip-path);}.cls-6{stroke-width:24px;}</style><clipPath id="clip-path"><rect class="cls-1" x="77.21" y="157.45" width="86.47" height="44.66"/></clipPath></defs><g id="Layer_2" data-name="Layer 2"><g id="Layer_1-2" data-name="Layer 1"><g id="Logo_Outline" data-name="Logo Outline"><path class="cls-2" d="M233.58,146.46l-87.12,87.12a33,33,0,0,1-46.67,0L12.67,146.46a33,33,0,0,1,0-46.67L99.79,12.67a33,33,0,0,1,46.67,0l87.12,87.12A33,33,0,0,1,233.58,146.46Z"/></g><g id="Logo"><g id="Secondary_j" data-name="Secondary j"><rect class="cls-3" x="148.41" y="74.19" width="5.81" height="24.43"/><circle class="cls-2" cx="119.84" cy="156.39" r="30.09"/><circle class="cls-3" cx="119.84" cy="153.72" r="8.24"/></g><g id="Main_j" data-name="Main j"><circle id="Dot3" class="cls-4" cx="151.7" cy="62.69" r="11.97"/><circle id="Dot2" class="cls-4" cx="151.72" cy="110.34" r="11.97"/><circle id="Dot" class="cls-4" cx="89.19" cy="157.45" r="11.97"/><g id="SquareCircle"><g class="cls-5"><circle id="Circle" class="cls-6" cx="120.45" cy="158.45" r="31.26"/></g></g><rect class="cls-4" x="139.74" y="110.46" width="23.95" height="46.99"/></g></g></g></g></svg>