<?xml version="1.0" encoding="utf-8"?>
<!-- Generator: Adobe Illustrator 24.1.0, SVG Export Plug-In . SVG Version: 6.00 Build 0)  -->
<svg version="1.1" id="Layer_1" xmlns="http://www.w3.org/2000/svg" xmlns:xlink="http://www.w3.org/1999/xlink" x="0px" y="0px"
	 viewBox="0 0 246.2 246.2" style="enable-background:new 0 0 246.2 246.2;" xml:space="preserve">
<style type="text/css">
	.st0{opacity:0.33;fill:none;stroke:#C5FFFE;stroke-width:6;stroke-miterlimit:10;enable-background:new    ;}
	.st1{opacity:0.33;fill:#C5FFFE;enable-background:new    ;}
	.st2{fill:#C5FFFE;}
	.st3{clip-path:url(#SVGID_2_);}
	.st4{fill:none;stroke:#C5FFFE;stroke-width:24;stroke-miterlimit:10;}
</style>
<g id="Layer_2_1_">
	<g id="Layer_1-2">
		<g id="Logo_Outline">
			<path class="st0" d="M233.6,146.5l-87.1,87.1c-12.9,12.9-33.8,12.9-46.7,0c0,0,0,0,0,0l-87.1-87.1c-12.9-12.9-12.9-33.8,0-46.7
				c0,0,0,0,0,0l87.1-87.1c12.9-12.9,33.8-12.9,46.7,0c0,0,0,0,0,0l87.1,87.1c13.1,12.7,13.6,33.3,0.9,46.4
				C234.3,146.4,234.1,146.6,233.6,146.5z"/>
		</g>
		<g id="Logo">
			<g id="Secondary_j">
				<rect x="148.4" y="74.2" class="st1" width="5.8" height="24.4"/>
				<circle class="st0" cx="119.8" cy="156.4" r="30.1"/>
				<circle class="st1" cx="119.8" cy="153.7" r="8.2"/>
			</g>
			<g id="Main_j">
				<circle id="Dot3" class="st2" cx="151.7" cy="62.7" r="12"/>
				<circle id="Dot2" class="st2" cx="151.7" cy="110.3" r="12"/>
				<circle id="Dot" class="st2" cx="89.2" cy="157.4" r="12"/>
				<g id="SquareCircle">
					<g>
						<defs>
							<rect id="SVGID_1_" x="77.2" y="157.4" width="86.5" height="44.7"/>
						</defs>
						<clipPath id="SVGID_2_">
							<use xlink:href="#SVGID_1_"  style="overflow:visible;"/>
						</clipPath>
						<g class="st3">
							<circle id="Circle" class="st4" cx="120.4" cy="158.4" r="31.3"/>
						</g>
					</g>
				</g>
				<rect x="139.7" y="110.5" class="st2" width="23.9" height="48"/>
			</g>
		</g>
	</g>
</g>
</svg>
