<?xml version="1.0" encoding="utf-8"?>
<!-- Generator: Adobe Illustrator 24.1.0, SVG Export Plug-In . SVG Version: 6.00 Build 0)  -->
<svg version="1.1" id="Layer_1" xmlns="http://www.w3.org/2000/svg" xmlns:xlink="http://www.w3.org/1999/xlink" x="0px" y="0px"
	 viewBox="0 0 95.2 82.4" style="enable-background:new 0 0 95.2 82.4;" xml:space="preserve">
<style type="text/css">
	.st0{display:none;}
	.st1{display:inline;}
	.st2{fill:#CFFDFC;}
	.st3{fill:none;stroke:#CFFDFC;stroke-width:8;stroke-linecap:round;stroke-linejoin:round;stroke-miterlimit:10;}
</style>
<g id="Layer_2_1_" class="st0">
	<g id="Layer_2-2" class="st1">
		<path class="st2" d="M24,0h48.3c4.5,0,8.1,3.6,8.1,8.1l0,0c0,4.4-3.6,8.1-8.1,8.1H24c-4.5,0-8.1-3.6-8.1-8.1l0,0
			C15.9,3.6,19.5,0,24,0z"/>
		<path class="st2" d="M24,66.3h48.3c4.5,0,8.1,3.6,8.1,8.1l0,0c0,4.4-3.6,8.1-8.1,8.1H24c-4.5,0-8.1-3.6-8.1-8.1l0,0
			C15.9,69.9,19.5,66.3,24,66.3z"/>
		<path class="st2" d="M8.1,33.2h79.1c4.5,0,8.1,3.6,8.1,8.1l0,0c0,4.4-3.6,8.1-8.1,8.1H8.1c-4.5,0-8.1-3.6-8.1-8.1l0,0
			C0,36.8,3.6,33.2,8.1,33.2z"/>
	</g>
</g>
<line class="st3" x1="24" y1="12.1" x2="71.2" y2="12.1"/>
<line class="st3" x1="24.6" y1="70.4" x2="71.7" y2="70.4"/>
<line class="st3" x1="8.9" y1="41.2" x2="86.4" y2="41.2"/>
</svg>
