<?xml version="1.0" encoding="utf-8"?>
<!-- Generator: Adobe Illustrator 24.1.0, SVG Export Plug-In . SVG Version: 6.00 Build 0)  -->
<svg version="1.1" id="Layer_1" xmlns="http://www.w3.org/2000/svg" xmlns:xlink="http://www.w3.org/1999/xlink" x="0px" y="0px"
	 viewBox="0 0 120.9 1183.7" style="enable-background:new 0 0 120.9 1183.7;" xml:space="preserve">
<style type="text/css">
	.st0{fill:none;stroke:#C5FFFE;stroke-width:12;stroke-miterlimit:10;}
	.st1{fill:#C5FFFE;stroke:#C5FFFE;stroke-width:3;stroke-miterlimit:10;}
	.st2{fill:none;stroke:#C5FFFE;stroke-width:12;stroke-linecap:round;stroke-linejoin:round;}
	
		.st3{opacity:0.33;fill:none;stroke:#C5FFFE;stroke-width:8;stroke-linecap:round;stroke-linejoin:round;enable-background:new    ;}
</style>
<g id="scroll">
	<g id="rect">
		<path class="st0" d="M60.5,6L60.5,6C90.6,6,115,30.4,115,60.5c-4.3,47.8,22,149.8-54.5,151.2C30.1,212.2,5.3,185.1,6,157.2
			C10,107.5-15.3,7.3,60.5,6z"/>
		<path class="st1" d="M60.9,32.6L60.9,32.6c2.8,0,5.1,2.3,5.1,5.1v20.7c0,2.8-2.3,5.1-5.1,5.1c-2.9,0.1-5.2-2.7-5.1-5.1
			c0-0.6,0-20.6,0-20.9C55.9,34.8,58.2,32.6,60.9,32.6z"/>
	</g>
	<g id="arrow-down">
		<line class="st2" x1="92.3" y1="1146.3" x2="60.9" y2="1177.7"/>
		<line class="st2" x1="28.8" y1="1146.3" x2="60.1" y2="1177.7"/>
	</g>
	<g id="line">
		<line class="st3" x1="60.9" y1="293.2" x2="60.9" y2="1060.6"/>
	</g>
</g>
</svg>
