<svg xmlns="http://www.w3.org/2000/svg" viewBox="0 0 831.59 557"><defs><style>.cls-1{fill:#221f20;}</style></defs><g id="Layer_2" data-name="Layer 2"><g id="Layer_1-2" data-name="Layer 1"><path class="cls-1" d="M79.2,270q0,20.52-7.92,35.46A59.43,59.43,0,0,1,50,328.68,55.44,55.44,0,0,1,20.16,337q-9,0-14.58-5.94A20,20,0,0,1,0,316.8v-4q0-7.92,5.22-12.6A35.5,35.5,0,0,1,18.36,293q8.64-2.88,12.24-8.1a27.52,27.52,0,0,0,4.5-12.42A121.94,121.94,0,0,0,36,257.4V95.76A21.59,21.59,0,0,1,42.12,80.1,20.67,20.67,0,0,1,57.6,73.8a20.67,20.67,0,0,1,15.48,6.3A21.59,21.59,0,0,1,79.2,95.76ZM56.88,50.4q-12.24,0-17.28-4t-5-14V25.56q0-10.44,5.58-14.22t17.1-3.78q12.6,0,17.64,4t5,14V32.4q0,10.44-5.4,14.22T56.88,50.4Z"/><path class="cls-1" d="M314.64,170.28q0,29.52-13.14,52a94.39,94.39,0,0,1-35.28,35.1Q244.08,270,216.72,270t-49.5-12.6a94.32,94.32,0,0,1-35.28-35.1q-13.15-22.5-13.14-52t13.14-52A95.68,95.68,0,0,1,167.22,83q22.14-12.78,49.5-12.78T266.22,83a95.76,95.76,0,0,1,35.28,35.28Q314.64,140.76,314.64,170.28Zm-43.2,0q0-18.36-7.38-31.86a54.93,54.93,0,0,0-19.8-21.06,53.94,53.94,0,0,0-55.08,0,54.85,54.85,0,0,0-19.8,21.06Q162,151.92,162,170.28q0,18,7.38,31.5a54.85,54.85,0,0,0,19.8,21.06,53.94,53.94,0,0,0,55.08,0,54.93,54.93,0,0,0,19.8-21.06Q271.43,188.28,271.44,170.28Z"/><path class="cls-1" d="M399.24,270q0,20.52-7.92,35.46a59.5,59.5,0,0,1-21.24,23.22A55.47,55.47,0,0,1,340.2,337q-9,0-14.58-5.94A20,20,0,0,1,320,316.8v-4q0-7.92,5.22-12.6A35.42,35.42,0,0,1,338.4,293q8.64-2.88,12.24-8.1a27.64,27.64,0,0,0,4.5-12.42,123.91,123.91,0,0,0,.9-15.12V95.76a21.55,21.55,0,0,1,6.12-15.66,22.17,22.17,0,0,1,31,0,21.59,21.59,0,0,1,6.12,15.66ZM376.92,50.4q-12.24,0-17.28-4t-5-14V25.56q0-10.44,5.58-14.22t17.1-3.78q12.6,0,17.64,4t5,14V32.4q0,10.44-5.4,14.22T376.92,50.4Z"/><path class="cls-1" d="M474.83,266.4a20.63,20.63,0,0,1-15.47-6.3,21.55,21.55,0,0,1-6.12-15.66V22A21.55,21.55,0,0,1,459.36,6.3a22.17,22.17,0,0,1,31,0A21.63,21.63,0,0,1,496.44,22V244.44a21.63,21.63,0,0,1-6.12,15.66A20.7,20.7,0,0,1,474.83,266.4ZM589.32,73.8q8.26,0,14.4,6.84T609.83,94q0,8.64-8.63,16.2L492.83,209.88,491,160.2l82.44-79.56A21.71,21.71,0,0,1,589.32,73.8ZM594.72,266a20.49,20.49,0,0,1-15.84-7.2l-66.6-70.56L545,158l64.79,70.56q6.84,7.2,6.84,16.2a18.77,18.77,0,0,1-7.37,15.3Q601.91,266,594.72,266Z"/><path class="cls-1" d="M831.59,170.28q0,29.52-13.14,52a94.32,94.32,0,0,1-35.28,35.1Q761,270,733.67,270t-49.5-12.6a94.32,94.32,0,0,1-35.28-35.1q-13.14-22.5-13.14-52t13.14-52A95.68,95.68,0,0,1,684.17,83q22.14-12.78,49.5-12.78T783.17,83a95.68,95.68,0,0,1,35.28,35.28Q831.59,140.76,831.59,170.28Zm-43.19,0q0-18.36-7.39-31.86a54.85,54.85,0,0,0-19.8-21.06,53.94,53.94,0,0,0-55.08,0,54.93,54.93,0,0,0-19.8,21.06q-7.38,13.5-7.38,31.86,0,18,7.38,31.5a54.93,54.93,0,0,0,19.8,21.06,53.94,53.94,0,0,0,55.08,0A54.85,54.85,0,0,0,781,201.78Q788.39,188.28,788.4,170.28Z"/><path class="cls-1" d="M48.06,553q-10.44,0-16-5.58t-5.58-16v-6.12q0-10.44,5.58-16t16-5.58h4.68q10.44,0,16,5.58t5.58,16v6.12q0,10.44-5.58,16t-16,5.58Z"/><path class="cls-1" d="M120.78,364.4H206.1a19.69,19.69,0,0,1,20.16,20.16,18.55,18.55,0,0,1-5.76,13.86A19.87,19.87,0,0,1,206.1,404H120.78a19.69,19.69,0,0,1-20.16-20.16A18.52,18.52,0,0,1,106.38,370,19.86,19.86,0,0,1,120.78,364.4Zm38.52-45a20.09,20.09,0,0,1,15.3,6.3,22,22,0,0,1,5.94,15.66v160.2a15.67,15.67,0,0,0,2,8.28,11.28,11.28,0,0,0,5.4,4.68A18.79,18.79,0,0,0,195.3,516a19.08,19.08,0,0,0,7.92-1.62,20,20,0,0,1,8.28-1.62q5,0,9.18,4.68c2.75,3.12,4.14,7.44,4.14,13q0,10.08-11,16.56a45.64,45.64,0,0,1-23.58,6.48,124,124,0,0,1-16.74-1.26A45.23,45.23,0,0,1,156.24,546q-8.1-4.86-13.5-14.94t-5.4-27.72v-162a21.52,21.52,0,0,1,22-22Z"/><path class="cls-1" d="M353,557q-30.6,0-53.1-12.78a88.26,88.26,0,0,1-34.56-34.74q-12.06-22-12.06-49.68,0-32.4,13.14-55.26t34.38-35.1a88.74,88.74,0,0,1,45-12.24,81.92,81.92,0,0,1,34.74,7.56,95,95,0,0,1,29,20.7,100.63,100.63,0,0,1,20,30.42,92.51,92.51,0,0,1,7.38,36.72,18.49,18.49,0,0,1-6.84,14A22.9,22.9,0,0,1,414.9,472H277.38l-10.8-36H398.7l-7.92,7.2v-9.72a32.83,32.83,0,0,0-7.38-18.72,48.2,48.2,0,0,0-16.56-13.14,47.17,47.17,0,0,0-21.06-4.86,68.22,68.22,0,0,0-20.16,2.88,38.62,38.62,0,0,0-16.2,9.72q-6.84,6.84-10.8,18.36t-4,29.16q0,19.44,8.1,32.94a55.36,55.36,0,0,0,48.06,27.54q13.32,0,21.24-2.16A47.74,47.74,0,0,0,384.84,510q4.86-3.06,8.82-5.22a27.46,27.46,0,0,1,12.24-3.24,18.13,18.13,0,0,1,18.36,18q0,9.72-10.08,17.64-9.36,7.92-26.28,13.86A104.67,104.67,0,0,1,353,557Z"/><path class="cls-1" d="M556.73,357.2q20.53,0,35.82,4.32t23.76,12.06q8.46,7.74,8.46,18.54a23.43,23.43,0,0,1-4.32,13.5q-4.31,6.3-12.6,6.3a24.34,24.34,0,0,1-9.54-1.62,24.74,24.74,0,0,1-6.65-4.14,38.37,38.37,0,0,0-6.85-4.68q-3.6-2.16-11-3.42a72.2,72.2,0,0,0-11-1.26q-18.36,0-31.14,7.92a52.79,52.79,0,0,0-19.62,21.42q-6.84,13.5-6.84,31.14,0,17.28,7,30.78a55,55,0,0,0,19.44,21.42q12.43,7.92,28.62,7.92a95.58,95.58,0,0,0,15.48-1.08,38.38,38.38,0,0,0,10.8-3.24,65.49,65.49,0,0,0,9-6.12q4-3.24,11.89-3.24,9.35,0,14.39,5.94a21.77,21.77,0,0,1,5,14.58q0,9-10.08,16.38T590.39,552.5a133.46,133.46,0,0,1-35.46,4.5q-28.44,0-49.32-13.14A87.82,87.82,0,0,1,473.39,508q-11.34-22.68-11.34-50.76,0-29.52,12.06-52A89.42,89.42,0,0,1,507.59,370Q529,357.2,556.73,357.2Z"/><path class="cls-1" d="M759.42,357.2q25.91,0,39.41,11.16t18.54,29.7a157,157,0,0,1,5,41.22v92.16a21.63,21.63,0,0,1-6.12,15.66,22.18,22.18,0,0,1-31,0,21.58,21.58,0,0,1-6.11-15.66V439.28a74,74,0,0,0-2.89-21.42,29.39,29.39,0,0,0-10.43-15.3q-7.57-5.76-21.61-5.76-13.68,0-23.4,5.76a37.28,37.28,0,0,0-14.58,15.3,46.63,46.63,0,0,0-4.86,21.42v92.16a21.59,21.59,0,0,1-6.12,15.66,22.17,22.17,0,0,1-31,0,21.59,21.59,0,0,1-6.12-15.66V309a21.59,21.59,0,0,1,6.12-15.66,22.17,22.17,0,0,1,31,0A21.59,21.59,0,0,1,701.45,309v89.28l-5.4-1.08a80.58,80.58,0,0,1,9-13.14,77.93,77.93,0,0,1,14-13.14,75,75,0,0,1,18.36-9.9A62.12,62.12,0,0,1,759.42,357.2Z"/></g></g></svg>